# xmcd
#
# Track frame offsets: 
#        150
#        9391
#        18898
#        29005
#        39246
#        48022
#        57927
#        67400
#        77241
#        86077
#        96503
#        107660
#
# Disc length: 1560 seconds
#
# Revision: 0
# Processed by: cddbd v1.5.2PL0 Copyright (c) Steve Scherf et al.
# Submitted via: ExactAudioCopy v1.1
#
DISCID=9706160c
DTITLE=George Jones and The Jones Boys - George Jones_Country and Wester
DTITLE=n Song Book
DYEAR=2015
DGENRE=Country
TTITLE0=George Jones - You Gotta Be My Baby
TTITLE1=George Jones - Window Up Above
TTITLE2=George Jones - Your Heart Turned Left
TTITLE3=George Jones - Yearning
TTITLE4=George Jones - Rollin' In My Sweet Baby's Arms
TTITLE5=George Jones - She's Lonesome Again
TTITLE6=George Jones - White Lightning
TTITLE7=George Jones - Sometimes You Just Can't Win
TTITLE8=George Jones - Dixieland For Me
TTITLE9=George Jones - Don't Stop The Music
TTITLE10=George Jones - The Race Is On
TTITLE11=George Jones - We Must Have Been Out Of Our Minds
EXTD=
EXTT0=
EXTT1=
EXTT2=
EXTT3=
EXTT4=
EXTT5=
EXTT6=
EXTT7=
EXTT8=
EXTT9=
EXTT10=
EXTT11=
PLAYORDER=
